<?xml version="1.0" encoding="iso-8859-1"?>
<!-- Generator: Adobe Illustrator 19.0.0, SVG Export Plug-In . SVG Version: 6.00 Build 0)  -->
<svg version="1.1" id="Capa_1" xmlns="http://www.w3.org/2000/svg" xmlns:xlink="http://www.w3.org/1999/xlink" x="0px" y="0px"
	 viewBox="0 0 215.066 215.066" style="fill: #66da71; enable-background:new 0 0 215.066 215.066;" xml:space="preserve">
<g>
	<g>
		<path d="M168.012,86.153c-6.139-9.155-10.989-16.386-10.989-24.685c0-11.04,3.098-16.463,6.376-22.2
			c3.579-6.26,7.277-12.733,7.277-25.586c0-1.49-0.012-2.971-0.038-4.442c-0.021-1.249-0.722-2.388-1.83-2.968
			c-1.106-0.577-2.442-0.505-3.482,0.188c-6.955,4.656-15.964,7.221-25.371,7.221c-12.786,0-24.591-4.705-31.578-12.585
			c-1.297-1.459-3.811-1.459-5.108,0c-6.985,7.88-18.79,12.585-31.578,12.585c-8.069,0-15.768-1.85-22.262-5.35
			c-1.053-0.565-2.325-0.543-3.354,0.065C45.047,9,44.41,10.102,44.397,11.297c-0.009,0.79-0.012,1.586-0.012,2.383
			c0,12.853,3.7,19.326,7.277,25.586c3.279,5.738,6.376,11.16,6.376,22.2c0,8.388-4.376,15.64-9.919,24.822
			c-8.779,14.541-20.801,34.454-20.801,70.752c0,20.463,5.46,39.974,15.787,56.428c0.625,0.995,1.717,1.599,2.891,1.599h56.417
			c1.884,0,3.413-1.529,3.413-3.413v-6.827h6.827v6.827c0,1.884,1.529,3.413,3.413,3.413h56.417c1.174,0,2.266-0.604,2.886-1.597
			c10.329-16.452,15.787-35.965,15.787-56.428C191.156,120.657,177.779,100.714,168.012,86.153z M170.574,208.239H119.48v-6.827
			c0-1.884-1.529-3.413-3.413-3.413h-13.653c-1.884,0-3.413,1.529-3.413,3.413v6.827H47.905
			c-9.006-15.025-13.759-32.683-13.759-51.2c0-34.396,10.988-52.599,19.82-67.226c5.85-9.69,10.902-18.06,10.902-28.349
			c0-12.853-3.7-19.326-7.277-25.586c-2.965-5.187-5.781-10.112-6.294-19.164c6.265,2.492,13.215,3.792,20.396,3.792
			c13.283,0,25.755-4.536,34.133-12.278c8.378,7.741,20.85,12.278,34.133,12.278c8.516,0,16.792-1.869,23.875-5.333
			c-0.266,10.049-3.229,15.232-6.357,20.707c-3.579,6.26-7.277,12.733-7.277,25.586c0,10.378,5.629,18.77,12.146,28.486
			c9.796,14.606,21.987,32.78,21.987,67.087C184.333,175.557,179.582,193.214,170.574,208.239z"/>
	</g>
</g>
<g>
	<g>
		<path d="M188.083,128.627c-0.969-4.159-2.195-8.272-3.642-12.22c-0.649-1.765-2.604-2.673-4.369-2.033
			c-21.55,7.815-47.223,11.945-74.245,11.945c-24.625,0-48.415-3.485-68.792-10.078c-0.87-0.28-1.816-0.201-2.625,0.219
			c-0.811,0.422-1.418,1.15-1.688,2.022c-1.017,3.285-1.9,6.695-2.623,10.134c-0.377,1.79,0.724,3.56,2.497,4.012
			c19.181,4.886,40.567,24.328,55.817,50.739c3.637,6.298,6.803,12.797,9.412,19.313c0.519,1.295,1.775,2.145,3.169,2.145h16.534
			c1.396,0,2.65-0.85,3.169-2.145c2.609-6.516,5.775-13.013,9.412-19.313c15.145-26.233,36.419-45.647,55.518-50.664
			C187.412,132.233,188.502,130.427,188.083,128.627z M124.197,179.955c-3.401,5.89-6.409,11.95-8.96,18.045h-11.952
			c-2.551-6.094-5.56-12.155-8.958-18.045c-15.319-26.528-36.83-46.502-56.849-53.014c0.254-1.058,0.526-2.111,0.811-3.154
			c20.28,6.129,43.544,9.359,67.54,9.359c26.46,0,51.719-3.867,73.306-11.208c0.551,1.688,1.06,3.401,1.522,5.13
			C160.75,133.714,139.393,153.633,124.197,179.955z"/>
	</g>
</g>
<g>
	<g>
		<path d="M204.813,58.053h-30.72c-1.884,0-3.413,1.529-3.413,3.413s1.529,3.413,3.413,3.413h30.72c1.884,0,3.413-1.529,3.413-3.413
			S206.697,58.053,204.813,58.053z"/>
	</g>
</g>
<g>
	<g>
		<path d="M175.508,61.466l14.652-14.653c1.333-1.333,1.333-3.494,0-4.826c-1.331-1.333-3.495-1.333-4.826,0l-17.067,17.067
			c-1.333,1.333-1.333,3.494,0,4.826l17.067,17.067c0.666,0.667,1.539,1,2.413,1c0.874,0,1.748-0.334,2.413-1
			c1.333-1.333,1.333-3.494,0-4.826L175.508,61.466z"/>
	</g>
</g>
<g>
	<g>
		<path d="M40.973,58.053h-30.72c-1.884,0-3.413,1.529-3.413,3.413s1.529,3.413,3.413,3.413h30.72c1.884,0,3.413-1.529,3.413-3.413
			S42.857,58.053,40.973,58.053z"/>
	</g>
</g>
<g>
	<g>
		<path d="M46.8,59.053L29.733,41.986c-1.331-1.333-3.495-1.333-4.826,0c-1.333,1.333-1.333,3.494,0,4.826l14.652,14.653
			L24.906,76.119c-1.333,1.333-1.333,3.494,0,4.826c0.666,0.667,1.539,1,2.413,1c0.874,0,1.748-0.334,2.413-1L46.8,63.879
			C48.132,62.546,48.132,60.386,46.8,59.053z"/>
	</g>
</g>
<g>
</g>
<g>
</g>
<g>
</g>
<g>
</g>
<g>
</g>
<g>
</g>
<g>
</g>
<g>
</g>
<g>
</g>
<g>
</g>
<g>
</g>
<g>
</g>
<g>
</g>
<g>
</g>
<g>
</g>
</svg>
