<?xml version="1.0" encoding="iso-8859-1"?>
<!-- Generator: Adobe Illustrator 19.0.0, SVG Export Plug-In . SVG Version: 6.00 Build 0)  -->
<svg version="1.1" id="Capa_1" xmlns="http://www.w3.org/2000/svg" xmlns:xlink="http://www.w3.org/1999/xlink" x="0px" y="0px"
	 viewBox="0 0 215.066 215.066" style="fill: #66da71; enable-background:new 0 0 215.066 215.066;" xml:space="preserve">
<g>
	<g>
		<path d="M200.728,45.19c-2.355-10.441-10.653-18.574-21.139-20.717c-1.847-0.389-3.649,0.812-4.026,2.661
			c-0.377,1.847,0.814,3.649,2.661,4.026c7.859,1.609,14.08,7.706,15.845,15.534c0.358,1.586,1.766,2.662,3.326,2.662
			c0.249,0,0.502-0.027,0.754-0.084C199.987,48.855,201.143,47.029,200.728,45.19z"/>
	</g>
</g>
<g>
	<g>
		<path d="M184.295,9.237c-0.02-1.249-0.725-2.386-1.831-2.966c-1.106-0.579-2.444-0.507-3.48,0.188
			c-6.955,4.656-15.964,7.221-25.371,7.221c-12.786,0-24.593-4.705-31.58-12.585c-1.294-1.459-3.813-1.459-5.106,0
			c-6.987,7.88-18.794,12.585-31.58,12.585c-8.071,0-15.768-1.85-22.26-5.35c-1.053-0.565-2.326-0.543-3.354,0.065
			c-1.029,0.606-1.666,1.708-1.679,2.903c-0.009,0.79-0.014,1.586-0.014,2.383c0,12.851,3.698,19.323,7.276,25.583
			c1.478,2.587,2.874,5.03,3.992,7.922c0.521,1.353,1.814,2.185,3.183,2.185c0.41,0,0.824-0.075,1.229-0.229
			c1.76-0.679,2.633-2.656,1.954-4.413c-1.302-3.374-2.895-6.158-4.431-8.849c-2.964-5.187-5.779-10.114-6.294-19.162
			c6.265,2.492,13.215,3.792,20.396,3.792c13.283,0,25.755-4.536,34.133-12.278c8.378,7.741,20.85,12.278,34.133,12.278
			c8.516,0,16.792-1.87,23.873-5.333c-0.268,10.047-3.229,15.23-6.357,20.704c-1.534,2.685-3.12,5.461-4.422,8.825
			c-0.679,1.758,0.195,3.736,1.952,4.415c1.756,0.681,3.736-0.193,4.415-1.952c1.116-2.886,2.509-5.321,3.983-7.902
			c3.577-6.258,7.276-12.732,7.276-25.583C184.33,12.189,184.32,10.708,184.295,9.237z"/>
	</g>
</g>
<g>
	<g>
		<path d="M181.668,86.148c-1.109-1.654-2.183-3.253-3.2-4.82c-1.027-1.582-3.144-2.031-4.722-1.005
			c-1.582,1.027-2.033,3.14-1.005,4.722c1.034,1.596,2.128,3.224,3.256,4.907c9.796,14.604,21.989,32.78,21.989,67.089
			c0,18.516-4.753,36.174-13.759,51.2h-51.094v-6.827c0-1.884-1.529-3.413-3.413-3.413h-13.653c-1.884,0-3.413,1.529-3.413,3.413
			v6.827H61.558c-9.006-15.026-13.759-32.684-13.759-51.2c0-34.398,10.988-52.599,19.818-67.226l1.626-2.703
			c0.968-1.618,0.44-3.714-1.178-4.681c-1.615-0.968-3.714-0.442-4.681,1.178l-1.611,2.678
			c-8.779,14.541-20.801,34.456-20.801,70.753c0,20.461,5.458,39.972,15.785,56.428c0.625,0.995,1.717,1.599,2.891,1.599h56.417
			c1.884,0,3.413-1.529,3.413-3.413v-6.827h6.827v6.827c0,1.884,1.529,3.413,3.413,3.413h56.417c1.174,0,2.266-0.604,2.893-1.599
			c10.327-16.454,15.785-35.966,15.785-56.428C204.814,120.653,191.435,100.709,181.668,86.148z"/>
	</g>
</g>
<g>
	<g>
		<path d="M201.735,128.625c-0.973-4.166-2.196-8.277-3.644-12.221c-0.649-1.763-2.603-2.671-4.369-2.031
			c-21.55,7.815-47.223,11.945-74.245,11.945c-24.625,0-48.415-3.485-68.794-10.078c-0.867-0.28-1.814-0.2-2.623,0.22
			c-0.809,0.422-1.418,1.149-1.688,2.022c-1.021,3.308-1.903,6.717-2.621,10.134c-0.377,1.79,0.725,3.56,2.497,4.012
			c19.181,4.886,40.568,24.328,55.817,50.739c3.637,6.299,6.805,12.797,9.412,19.313c0.517,1.295,1.773,2.145,3.168,2.145h16.534
			c1.396,0,2.65-0.85,3.169-2.147c2.611-6.516,5.777-13.015,9.414-19.313c15.145-26.233,36.419-45.646,55.516-50.664
			C201.064,132.231,202.153,130.426,201.735,128.625z M137.848,179.955c-3.398,5.89-6.409,11.95-8.958,18.045h-11.952
			c-2.55-6.094-5.56-12.155-8.96-18.045c-15.317-26.53-36.828-46.503-56.849-53.014c0.256-1.056,0.526-2.109,0.811-3.154
			c20.28,6.129,43.544,9.359,67.54,9.359c26.46,0,51.719-3.867,73.306-11.208c0.553,1.686,1.062,3.4,1.524,5.13
			C174.403,133.714,153.046,153.633,137.848,179.955z"/>
	</g>
</g>
<g>
	<g>
		<path d="M197.986,44.399H13.666c-1.884,0-3.413,1.529-3.413,3.413v37.547c0,1.884,1.529,3.413,3.413,3.413h149.91
			c20.857,0,37.823-16.969,37.823-37.825v-3.135C201.399,45.929,199.87,44.399,197.986,44.399z M163.576,81.946H17.079v-30.72
			H194.57C194.42,68.19,180.574,81.946,163.576,81.946z"/>
	</g>
</g>
<g>
	<g>
		<path d="M34.146,47.813c-1.884,0-3.413,1.529-3.413,3.413v13.653c0,1.884,1.529,3.413,3.413,3.413s3.413-1.529,3.413-3.413V51.226
			C37.559,49.342,36.03,47.813,34.146,47.813z"/>
	</g>
</g>
<g>
	<g>
		<path d="M51.212,47.813c-1.884,0-3.413,1.529-3.413,3.413v20.48c0,1.884,1.529,3.413,3.413,3.413s3.413-1.529,3.413-3.413v-20.48
			C54.625,49.342,53.096,47.813,51.212,47.813z"/>
	</g>
</g>
<g>
	<g>
		<path d="M68.279,47.813c-1.884,0-3.413,1.529-3.413,3.413v13.653c0,1.884,1.529,3.413,3.413,3.413
			c1.884,0,3.413-1.529,3.413-3.413V51.226C71.692,49.342,70.163,47.813,68.279,47.813z"/>
	</g>
</g>
<g>
	<g>
		<path d="M85.346,47.813c-1.884,0-3.413,1.529-3.413,3.413v20.48c0,1.884,1.529,3.413,3.413,3.413s3.413-1.529,3.413-3.413v-20.48
			C88.759,49.342,87.23,47.813,85.346,47.813z"/>
	</g>
</g>
<g>
	<g>
		<path d="M102.412,47.813c-1.884,0-3.413,1.529-3.413,3.413v13.653c0,1.884,1.529,3.413,3.413,3.413s3.413-1.529,3.413-3.413
			V51.226C105.826,49.342,104.296,47.813,102.412,47.813z"/>
	</g>
</g>
<g>
	<g>
		<path d="M119.479,47.813c-1.884,0-3.413,1.529-3.413,3.413v20.48c0,1.884,1.529,3.413,3.413,3.413s3.413-1.529,3.413-3.413v-20.48
			C122.892,49.342,121.363,47.813,119.479,47.813z"/>
	</g>
</g>
<g>
	<g>
		<path d="M136.546,47.813c-1.884,0-3.413,1.529-3.413,3.413v13.653c0,1.884,1.529,3.413,3.413,3.413
			c1.884,0,3.413-1.529,3.413-3.413V51.226C139.959,49.342,138.43,47.813,136.546,47.813z"/>
	</g>
</g>
<g>
	<g>
		<path d="M153.612,47.813c-1.884,0-3.413,1.529-3.413,3.413v20.48c0,1.884,1.529,3.413,3.413,3.413s3.413-1.529,3.413-3.413v-20.48
			C157.026,49.342,155.496,47.813,153.612,47.813z"/>
	</g>
</g>
<g>
	<g>
		<path d="M170.679,47.813c-1.884,0-3.413,1.529-3.413,3.413v13.653c0,1.884,1.529,3.413,3.413,3.413s3.413-1.529,3.413-3.413
			V51.226C174.092,49.342,172.563,47.813,170.679,47.813z"/>
	</g>
</g>
<g>
</g>
<g>
</g>
<g>
</g>
<g>
</g>
<g>
</g>
<g>
</g>
<g>
</g>
<g>
</g>
<g>
</g>
<g>
</g>
<g>
</g>
<g>
</g>
<g>
</g>
<g>
</g>
<g>
</g>
</svg>
