<svg xmlns="http://www.w3.org/2000/svg" xmlns:xlink="http://www.w3.org/1999/xlink" width="20px" height="20px"><path fill-rule="evenodd" fill="rgb(255, 255, 255)" d="M19.732,1.378 L11.124,10.000 L19.732,18.620 C20.047,18.936 20.047,19.448 19.732,19.763 C19.574,19.921 19.368,20.000 19.161,20.000 C18.955,20.000 18.749,19.921 18.591,19.763 L9.984,11.142 L1.377,19.763 C1.219,19.921 1.012,20.000 0.806,20.000 C0.600,20.000 0.393,19.921 0.236,19.763 C-0.079,19.448 -0.079,18.936 0.236,18.620 L8.843,9.999 L0.236,1.378 C-0.079,1.063 -0.079,0.551 0.236,0.236 C0.551,-0.080 1.061,-0.080 1.376,0.236 L9.984,8.857 L18.591,0.236 C18.906,-0.080 19.417,-0.080 19.732,0.236 C20.047,0.551 20.047,1.063 19.732,1.378 Z"></path></svg>