<?xml version="1.0" encoding="iso-8859-1"?>
<!-- Generator: Adobe Illustrator 19.0.0, SVG Export Plug-In . SVG Version: 6.00 Build 0)  -->
<svg version="1.1" id="Capa_1" xmlns="http://www.w3.org/2000/svg" xmlns:xlink="http://www.w3.org/1999/xlink" x="0px" y="0px"
	 viewBox="0 0 480 480" style="fill: #66da71; enable-background:new 0 0 480 480;" xml:space="preserve">
<g>
	<g>
		<path d="M240,113.567c-79.529,0-144,64.471-144,144c0.088,79.492,64.508,143.912,144,144c79.529,0,144-64.471,144-144
			S319.529,113.567,240,113.567z M240,385.567c-70.692,0-128-57.308-128-128c0.079-70.66,57.34-127.921,128-128
			c70.692,0,128,57.308,128,128S310.692,385.567,240,385.567z"/>
	</g>
</g>
<g>
	<g>
		<path d="M464,41.568v95.999h-16v-96h-16v96h-16v-96h-16v96h-16v-96h-16v104c0.024,17.463,14.044,31.681,31.504,31.952
			l-13.552,223.624c-1.293,21.013,14.693,39.096,35.706,40.39c21.013,1.293,39.096-14.693,40.39-35.706
			c0.096-1.56,0.096-3.124,0-4.683L448.496,177.52c17.46-0.271,31.48-14.489,31.504-31.952v-104H464z M440.104,418.607
			c-8.795,8.894-23.135,8.974-32.029,0.179c-0.06-0.06-0.12-0.119-0.179-0.179c-4.203-4.426-6.368-10.405-5.976-16.496
			l13.608-224.544h16.944l13.6,224.544C446.467,408.201,444.304,414.179,440.104,418.607z M448,161.567h-48
			c-5.713-0.003-10.991-3.052-13.848-8h75.704C458.998,158.517,453.716,161.567,448,161.567z"/>
	</g>
</g>
<g>
	<g>
		<path d="M73.752,43.783c-10.741-7.185-24.755-7.185-35.496,0C14.335,59.693-0.028,86.526,0,115.255v14.312
			c0.022,21.014,11.807,40.247,30.52,49.808L17.952,401.143c-1.293,21.013,14.693,39.096,35.706,40.39
			c21.013,1.293,39.096-14.693,40.39-35.706c0.096-1.56,0.096-3.124,0-4.683L81.48,179.375c18.713-9.561,30.498-28.794,30.52-49.808
			v-14.312C112.03,86.528,97.67,59.695,73.752,43.783z M72.104,418.615c-8.795,8.894-23.135,8.974-32.029,0.179
			c-0.06-0.059-0.12-0.119-0.179-0.179c-4.207-4.436-6.371-10.427-5.968-16.528l12.32-217.416c6.445,1.209,13.059,1.209,19.504,0
			l12.328,217.44C78.475,408.205,76.309,414.187,72.104,418.615z M96,129.567c0,22.091-17.909,40-40,40s-40-17.909-40-40v-14.312
			c-0.025-23.378,11.662-45.214,31.128-58.16c5.372-3.594,12.381-3.594,17.752,0C84.343,70.043,96.026,91.879,96,115.255V129.567z"
			/>
	</g>
</g>
<g>
	<g>
		<path d="M240,145.567c-61.856,0-112,50.144-112,112c0.071,61.827,50.173,111.929,112,112c61.856,0,112-50.144,112-112
			S301.856,145.567,240,145.567z M319.328,311.583c-5.997,8.725-13.386,16.406-21.872,22.736l-8.232-13.16l-13.6,8.488l8.256,13.208
			c-11.163,5.769-23.357,9.271-35.88,10.304v-15.592h-16v15.592c-11.098-0.923-21.949-3.788-32.056-8.464l7.656-13.528
			l-13.928-7.872l-7.688,13.6c-8.725-5.997-16.406-13.386-22.736-21.872l13.16-8.232l-8.488-13.6l-13.2,8.264
			c-5.773-11.165-9.277-23.362-10.312-35.888H160v-16h-15.592c0.923-11.099,3.788-21.949,8.464-32.056l13.544,7.656l7.872-13.928
			l-13.6-7.688c6.003-8.723,13.397-16.401,21.888-22.728l8.232,13.16l13.6-8.488l-8.296-13.208
			c11.165-5.773,23.362-9.277,35.888-10.312v15.592h16v-15.592c11.098,0.923,21.949,3.788,32.056,8.464l-7.656,13.528l13.928,7.872
			l7.688-13.6c8.725,5.997,16.406,13.386,22.736,21.872l-13.16,8.232l8.488,13.6l13.208-8.256
			c5.769,11.163,9.271,23.357,10.304,35.88H320v16h15.592c-0.923,11.098-3.787,21.949-8.464,32.056l-13.528-7.656l-7.872,13.928
			L319.328,311.583z"/>
	</g>
</g>
<g>
	<g>
		<path d="M232,193.567L232,193.567v60l-28.8,21.6l9.6,12.8l32-24c2.014-1.511,3.2-3.882,3.2-6.4v-64H232z"/>
	</g>
</g>
<g>
</g>
<g>
</g>
<g>
</g>
<g>
</g>
<g>
</g>
<g>
</g>
<g>
</g>
<g>
</g>
<g>
</g>
<g>
</g>
<g>
</g>
<g>
</g>
<g>
</g>
<g>
</g>
<g>
</g>
</svg>
