<?xml version="1.0" encoding="iso-8859-1"?>
<!-- Generator: Adobe Illustrator 19.0.0, SVG Export Plug-In . SVG Version: 6.00 Build 0)  -->
<svg version="1.1" id="Capa_1" xmlns="http://www.w3.org/2000/svg" xmlns:xlink="http://www.w3.org/1999/xlink" x="0px" y="0px"
	 viewBox="0 0 512 512" style="fill: #66da71; enable-background:new 0 0 512 512;" xml:space="preserve">
<g>
	<g>
		<path d="M502,145.999v-30.001c0-16.542-13.457-29.999-30-29.999c-3.904,0-7.633,0.758-11.059,2.121
			C457.473,75.39,445.815,66,431.998,66c-16.543,0-30.002,13.457-30.002,29.999v50H110.002v-50c0-16.542-13.459-29.999-30-29.999
			c-13.816,0-25.475,9.39-28.943,22.12c-3.426-1.363-7.154-2.121-11.059-2.121c-16.543,0-30.002,13.457-30.002,29.999v30.001
			C4.477,146,0,150.477,0,155.999c0,5.522,4.477,9.999,9.998,10v30c0,16.542,13.459,29.999,30.002,29.999
			c3.904,0,7.633-0.758,11.059-2.121C54.527,236.61,66.186,246,80.002,246c3.506,0,6.869-0.61,10-1.72V386H70
			c-5.521,0-10,4.477-10,10v40c0,5.523,4.479,10,10,10c5.523,0,10-4.477,10-10v-30.001h40V436c0,5.523,4.477,10,10,10
			c5.521,0,10-4.477,10-10v-40.001c0-5.523-4.479-10-10-10h-19.998v-170V166h291.994v49.999c0,0.167,0.01,0.333,0.014,0.501V386
			h-20.002c-5.522,0-10,4.477-10,10v40c0,5.523,4.478,10,10,10c5.523,0,10-4.477,10-10v-30.001h40V436c0,5.523,4.477,10,10,10
			c5.521,0,10-4.477,10-10v-40.001c0-5.523-4.479-10-10-10H422.01V244.283c3.127,1.107,6.486,1.716,9.988,1.716
			c13.817,0,25.475-9.39,28.943-22.122c3.426,1.363,7.154,2.121,11.059,2.121c16.543,0,30-13.458,30-29.999v-30
			c5.522,0,10-4.477,10-10S507.522,145.999,502,145.999z M50,196c0,5.513-4.486,9.999-10,9.999c-5.516,0-10.002-4.486-10.002-9.999
			v-80.001c0-5.514,4.486-9.999,10.002-9.999c5.514,0,10,4.485,10,9.999V196z M90.002,155.999v59.999
			c0,5.515-4.486,10.002-10,10.002C74.486,226,70,221.513,70,215.999V196v-80.001v-20C70,90.486,74.486,86,80.002,86
			c5.514,0,10,4.485,10,9.999V155.999z M442,115.998v80.001v20c0,5.515-4.488,10.001-10.002,10.001
			c-5.432,0-9.853-4.352-9.988-9.751v-60.25c0-0.085-0.012-0.167-0.014-0.251V95.999c0-5.514,4.486-9.999,10.002-9.999
			C437.512,86,442,90.486,442,95.999V115.998z M482,195.999c0,5.514-4.486,9.999-10,9.999c-5.514,0-10-4.486-10-9.999v-80.001
			c0-5.514,4.486-9.999,10-9.999c5.514,0,10,4.485,10,9.999V195.999z"/>
	</g>
</g>
<g>
	<g>
		<path d="M316,265.996H196c-16.543,0-30.002,13.459-30.002,30.003c0,13.037,8.361,24.152,20.002,28.279V436c0,5.523,4.477,10,10,10
			c5.521,0,10-4.477,10-10v-30.001h100V436c0,5.523,4.478,10,10,10c5.523,0,10-4.477,10-10V324.279
			c11.639-4.128,20-15.243,20-28.279C346,279.456,332.543,265.996,316,265.996z M306,385.999H206v-60h100V385.999z M316,305.999H196
			c-5.516,0-10.002-4.486-10.002-10c0-5.515,4.486-10.003,10.002-10.003h120c5.514,0,10,4.487,10,10.003
			C326,301.513,321.514,305.999,316,305.999z"/>
	</g>
</g>
<g>
</g>
<g>
</g>
<g>
</g>
<g>
</g>
<g>
</g>
<g>
</g>
<g>
</g>
<g>
</g>
<g>
</g>
<g>
</g>
<g>
</g>
<g>
</g>
<g>
</g>
<g>
</g>
<g>
</g>
</svg>
