<?xml version="1.0" encoding="iso-8859-1"?>
<!-- Generator: Adobe Illustrator 19.0.0, SVG Export Plug-In . SVG Version: 6.00 Build 0)  -->
<svg version="1.1" id="Capa_1" xmlns="http://www.w3.org/2000/svg" xmlns:xlink="http://www.w3.org/1999/xlink" x="0px" y="0px"
	 viewBox="0 0 512.002 512.002" style="fill: #66da71; enable-background:new 0 0 512.002 512.002;" xml:space="preserve">
<g>
	<g>
		<path d="M295.171,157.403c-1.674-1.673-2.595-3.898-2.595-6.265s0.921-4.592,2.595-6.265c2.929-2.929,2.929-7.678,0-10.607
			c-2.93-2.929-7.678-2.928-10.607-0.001c-4.507,4.507-6.989,10.499-6.989,16.873s2.482,12.366,6.988,16.872
			c3.455,3.455,3.455,9.077,0.001,12.532c-2.928,2.928-2.928,7.677,0.001,10.606c1.464,1.464,3.384,2.197,5.303,2.197
			s3.839-0.732,5.303-2.197C304.475,181.845,304.475,166.707,295.171,157.403z"/>
	</g>
</g>
<g>
	<g>
		<path d="M369.015,157.403c-1.673-1.674-2.595-3.899-2.595-6.266s0.922-4.592,2.595-6.266c2.929-2.929,2.929-7.678,0-10.607
			c-2.929-2.929-7.678-2.929-10.606,0c-9.303,9.303-9.303,24.441,0,33.744c1.673,1.675,2.595,3.9,2.595,6.267
			c0,2.367-0.922,4.592-2.596,6.265c-2.929,2.929-2.929,7.678,0,10.607c1.465,1.464,3.384,2.197,5.304,2.197
			c1.919,0,3.839-0.732,5.303-2.196c4.507-4.507,6.989-10.499,6.989-16.872S373.521,161.91,369.015,157.403z"/>
	</g>
</g>
<g>
	<g>
		<path d="M412.004,239.527h-9.799c0.061-0.581,0.095-1.17,0.095-1.767v-13.796c0-9.245-7.522-16.767-16.767-16.767h-11.425
			c-4.142,0-7.5,3.358-7.5,7.5c0,4.142,3.358,7.5,7.5,7.5h11.425c0.974,0,1.767,0.792,1.767,1.767v13.796
			c0,0.974-0.793,1.767-1.767,1.767H245.029c-0.974,0-1.767-0.792-1.767-1.767v-13.796c0-0.974,0.792-1.767,1.767-1.767h93.685
			c4.142,0,7.5-3.358,7.5-7.5c0-4.142-3.358-7.5-7.5-7.5h-93.685c-9.245,0-16.767,7.521-16.767,16.767v13.796
			c0,0.597,0.034,1.186,0.095,1.767h-64.848c-0.467-1.504-1.074-2.946-1.799-4.317L337.43,59.49c6.382-6.382,6.382-16.765,0-23.147
			l-8.061-8.061C311.132,10.044,286.883,0,261.09,0c-25.793,0-50.042,10.044-68.28,28.283l-9.497,9.497l-5.554-5.554
			c-6.95-6.95-17.814-7.395-24.22-0.99l-30.932,30.932c-6.405,6.405-5.961,17.27,0.99,24.22l5.554,5.554l-9.498,9.498
			c-36.706,36.707-37.608,95.845-2.741,133.676c-1.9,3.554-2.98,7.608-2.98,11.911c0,11.403,7.568,21.07,17.944,24.248
			c0.053,1.302,0.129,2.599,0.234,3.887h-27.506c-11.566,0-20.977,9.41-20.977,20.977c0,11.566,9.41,20.976,20.977,20.976h41.058
			c12.493,20.657,32.503,36.282,56.213,43.051l-22.921,88.748c-1.036,4.011,1.376,8.102,5.386,9.137
			c0.629,0.163,1.26,0.24,1.881,0.24c3.337,0,6.383-2.245,7.256-5.626l23.121-89.525c3.853,0.47,7.774,0.716,11.752,0.716h4.897
			l-32.808,127.029c-0.93,3.601-4.17,6.115-7.88,6.115c-0.685,0-1.374-0.088-2.048-0.263c-2.107-0.544-3.877-1.877-4.982-3.752
			s-1.415-4.068-0.87-6.176l2.946-11.407c1.036-4.011-1.376-8.102-5.386-9.137c-4.014-1.036-8.102,1.375-9.137,5.386l-2.946,11.407
			c-1.546,5.987-0.669,12.218,2.472,17.545c3.14,5.327,8.166,9.112,14.151,10.658c1.898,0.491,3.85,0.74,5.801,0.74
			c10.55,0,19.763-7.141,22.404-17.364l11.068-42.854h108.196l3.348,12.922c-2.405,4.507-3.774,9.648-3.774,15.104
			c0,17.751,14.442,32.193,32.193,32.193c17.752,0,32.194-14.442,32.194-32.193c0-11.887-6.481-22.283-16.09-27.859l-23.779-91.791
			c24.934-7.128,45.772-24.053,58.075-46.324c0.285-0.418,0.527-0.866,0.724-1.338c7.179-13.494,11.255-28.879,11.255-45.201v-11.4
			C428.372,246.869,421.029,239.527,412.004,239.527z M133.213,72.774l30.931-30.931c0.31-0.308,1.765-0.254,3.008,0.989
			l5.554,5.554l-32.949,32.949l-5.554-5.554c-0.948-0.948-1.111-1.891-1.138-2.252C133.04,73.185,133.098,72.889,133.213,72.774z
			 M130.259,112.046l73.157-73.157C218.822,23.484,239.304,15,261.09,15c21.786,0,42.268,8.484,57.673,23.889l8.061,8.061
			c0.533,0.533,0.533,1.401,0,1.934l-175.72,175.72c-3.531-1.869-7.552-2.932-11.817-2.932c-4.229,0-8.215,1.046-11.724,2.884
			C98.491,192.586,99.386,142.919,130.259,112.046z M104.603,302.115c-3.295,0-5.977-2.681-5.977-5.976
			c0-3.295,2.681-5.977,5.977-5.977h29.927c0.998,4.092,2.254,8.083,3.756,11.953H104.603z M139.287,257.382
			c-5.71,0-10.355-4.646-10.355-10.355c0-5.71,4.646-10.355,10.355-10.355c5.71,0,10.355,4.646,10.355,10.355
			C149.643,252.737,144.997,257.382,139.287,257.382z M229.905,436.781l4.21-16.299h92.004l4.222,16.299H229.905z M237.989,405.482
			l10.751-41.626h62.71l10.784,41.626H237.989z M383.188,479.807c0,9.48-7.713,17.193-17.194,17.193
			c-9.48,0-17.193-7.713-17.193-17.193c0-9.481,7.713-17.194,17.193-17.194C375.475,462.613,383.188,470.326,383.188,479.807z
			 M365.482,447.626c-5.717,0.09-11.075,1.675-15.701,4.385l-22.837-88.154h4.865c3.989,0,7.922-0.248,11.786-0.72L365.482,447.626z
			 M331.809,348.856H228.35c-26.223,0-49.58-12.453-64.51-31.741h232.48C381.389,336.403,358.033,348.856,331.809,348.856z
			 M405.547,302.115H154.612c-4.481-9.451-7.202-19.89-7.726-30.898c7.913-2.491,14.164-8.764,16.623-16.691h248.495
			c0.754,0,1.367,0.613,1.367,1.367v11.401h0.001C413.372,279.745,410.557,291.548,405.547,302.115z"/>
	</g>
</g>
<g>
	<g>
		<path d="M332.093,157.404c-1.673-1.674-2.595-3.899-2.595-6.266s0.922-4.592,2.595-6.266c2.929-2.929,2.929-7.678,0-10.607
			c-2.929-2.929-7.678-2.929-10.606,0c-9.303,9.303-9.303,24.441,0,33.744c1.674,1.674,2.596,3.899,2.596,6.266
			s-0.922,4.592-2.596,6.265c-2.929,2.93-2.929,7.678-0.001,10.608c1.465,1.464,3.384,2.197,5.304,2.197
			c1.919,0,3.839-0.732,5.303-2.196c4.507-4.507,6.989-10.499,6.989-16.872C339.082,167.904,336.6,161.911,332.093,157.404z"/>
	</g>
</g>
<g>
</g>
<g>
</g>
<g>
</g>
<g>
</g>
<g>
</g>
<g>
</g>
<g>
</g>
<g>
</g>
<g>
</g>
<g>
</g>
<g>
</g>
<g>
</g>
<g>
</g>
<g>
</g>
<g>
</g>
</svg>
