<svg width="735" height="431" viewBox="0 0 735 431" fill="none" xmlns="http://www.w3.org/2000/svg">
<path d="M13.8135 382.196V46.5708C13.8135 27.6381 28.1667 13.8689 47.1129 13.8689H149.882C214.184 13.8689 267.004 32.8016 307.767 70.667C349.104 108.532 369.772 156.151 369.772 213.523C369.772 270.894 348.529 319.087 306.618 357.526C264.707 395.965 211.887 415.471 147.585 415.471H47.1129C27.0185 415.471 13.8135 402.276 13.8135 382.196ZM79.8381 71.2407V358.099H151.604C195.812 358.099 231.982 344.33 260.688 317.366C289.394 289.827 303.748 255.404 303.748 214.67C303.748 173.362 289.394 138.939 260.688 111.975C232.556 85.0099 195.812 71.2407 151.604 71.2407H79.8381Z" fill="#FFD340"/>
<path fill-rule="evenodd" clip-rule="evenodd" d="M243.28 126.785C218.084 105.883 191.463 97.807 151.604 95.9068H104.942V339.134H153.907C194.79 337.234 220.652 328.812 246.607 304.455C271.327 277.853 281.311 251.848 281.311 214.67C281.311 178.09 269.114 151.051 243.28 126.785ZM260.688 317.366C231.982 344.33 195.812 358.099 151.604 358.099H79.8381V71.2407H151.604C195.812 71.2407 232.556 85.0099 260.688 111.975C289.394 138.939 303.748 173.362 303.748 214.67C303.748 255.404 289.394 289.827 260.688 317.366ZM0.357422 382.196V46.5708C0.357422 19.9045 21.0464 0.422363 47.1129 0.422363H149.882C216.981 0.422363 273.248 20.2611 316.893 60.7854C361.062 101.261 383.228 152.499 383.228 213.523C383.228 274.649 360.414 326.438 315.717 367.432C271.039 408.408 214.851 428.918 147.585 428.918H47.1129C34.0567 428.918 22.1195 424.572 13.4129 415.872C4.70625 407.171 0.357422 395.242 0.357422 382.196ZM307.767 70.667C267.004 32.8016 214.184 13.8689 149.882 13.8689H47.1129C28.1667 13.8689 13.8135 27.6381 13.8135 46.5708V382.196C13.8135 402.276 27.0185 415.471 47.1129 415.471H147.585C211.887 415.471 264.707 395.965 306.618 357.526C348.529 319.087 369.772 270.894 369.772 213.523C369.772 156.151 349.104 108.532 307.767 70.667Z" fill="#FFD340"/>
<path d="M452 383.494V46.1484C452 19.4821 472.689 0 498.755 0H692.81C704.308 0 714.893 4.01866 722.635 11.7553C730.377 19.4919 734.399 30.0692 734.399 41.5587C734.399 53.3873 730.529 64.2506 722.77 72.2293C714.987 80.232 704.321 84.2648 692.81 84.2648H549.657V184.737H661.986C673.322 184.737 683.762 188.84 691.377 196.562C698.985 204.276 703 214.812 703 226.296C703 237.78 698.985 248.315 691.377 256.03C683.762 263.751 673.322 267.854 661.986 267.854H544.937V383.494C544.937 409.542 525.441 430.217 498.755 430.217C472.378 430.217 452 409.853 452 383.494Z" fill="#40B54B"/>
</svg>
