<svg width="876" height="649" viewBox="0 0 876 649" fill="none" xmlns="http://www.w3.org/2000/svg">
<path fill-rule="evenodd" clip-rule="evenodd" d="M237.604 95.9068C277.463 97.807 304.084 105.883 329.28 126.785C355.114 151.051 367.311 178.09 367.311 214.67C367.311 251.848 357.327 277.853 332.607 304.455C306.652 328.812 280.79 337.234 239.907 339.134H190.942V95.9068H237.604ZM86.3574 46.5708V382.196C86.3574 395.242 90.7063 407.171 99.4129 415.872C108.12 424.572 120.057 428.918 133.113 428.918H233.585C300.851 428.918 357.039 408.408 401.717 367.432C446.414 326.438 469.228 274.649 469.228 213.523C469.228 152.499 447.062 101.261 402.893 60.7854C359.248 20.2611 302.981 0.422363 235.882 0.422363H133.113C107.046 0.422363 86.3574 19.9045 86.3574 46.5708ZM256 554.159V636.009C256 639.164 257.007 642.048 259.025 644.152C261.042 646.256 263.807 647.306 266.832 647.306H316.842C319.631 647.306 322.172 646.304 324.015 644.328C325.848 642.361 326.743 639.698 326.743 636.841C326.743 631.022 322.421 626.514 316.842 626.514H277.53V554.159C277.53 547.785 272.943 543 266.832 543C260.793 543 256 547.711 256 554.159ZM58 572.5C52.1395 566.637 44.5887 564 35.039 564H22V625H35.039C44.5633 625 51.4871 622.389 57.5 616.5C63.5087 610.478 66 603.212 66 594.223C66 585.074 63.9849 578.368 58 572.5ZM0 635.009V553.853C0 547.404 4.79297 542.694 10.8317 542.694H34.64C50.1848 542.694 63.2201 547.491 73.3311 557.29C83.5638 567.077 88.6989 579.467 88.6989 594.223C88.6989 609.003 83.4135 621.526 73.0587 631.439C62.7084 641.347 49.6912 646.306 34.1079 646.306H10.8317C7.80705 646.306 5.04158 645.256 3.02453 643.152C1.00748 641.048 0 638.163 0 635.009ZM372.02 608.587L401.124 561.377C401.289 561.103 401.464 560.823 401.643 560.537L401.644 560.535C402.751 558.763 404 556.762 404 554.604C404 551.616 402.802 548.462 400.915 546.5C399.036 544.545 395.749 543.5 393 543.5C389.021 543.5 385.049 545.593 383 549L361.825 586.684L338.777 549.681C336.68 546.036 333.488 544 329.454 544C326.547 544 323.894 545.081 321.96 547.12C320.026 549.159 319 551.956 319 555.02C319 557.465 319.788 559.591 320.93 561.483L320.947 561.512L350.717 608.583V637.702C350.717 640.757 351.735 643.61 353.683 645.713C355.641 647.829 358.368 649 361.434 649C367.551 649 372.02 644.001 372.02 637.702V608.587ZM231.062 553.298V635.564C231.062 638.753 230.001 641.659 227.971 643.776C225.942 645.893 223.156 647 220.098 647C217.045 647 214.24 645.897 212.184 643.803C210.121 641.702 209 638.793 209 635.564V553.298C209 546.851 213.791 542 220.098 542C226.475 542 231.062 546.924 231.062 553.298ZM99.4523 630.252L99.4491 630.26C98.5957 632.337 98 634.348 98 636.257C98 642.432 102.531 647 108.566 647C110.87 647 112.967 646.228 114.731 644.72C116.442 643.258 118.5 641 119.5 639L125.5 629.794H163.929L170 639.5C171.5 642 172.87 643.302 174.687 644.774C176.556 646.287 178.778 647 181.187 647C184.122 647 186.838 645.921 188.828 643.845C190.822 641.766 191.886 638.895 191.886 635.702C191.886 633.84 191.31 631.847 190.641 629.892L190.607 629.794L158.523 552.175C157.311 549.103 155.622 546.525 153.318 544.717C150.972 542.876 148.201 542 145.143 542C142.084 542 139.313 542.876 136.967 544.717C134.663 546.525 132.975 549.102 131.762 552.174L99.4523 630.252ZM132.782 610.749L144.732 572.362L156.848 610.749H132.782Z" fill="#FFD340"/>
<path fill-rule="evenodd" clip-rule="evenodd" d="M538 383.494V46.1484C538 19.4821 558.689 0 584.755 0H778.81C790.308 0 800.893 4.01866 808.635 11.7553C816.377 19.4919 820.399 30.0692 820.399 41.5587C820.399 53.3873 816.529 64.2506 808.77 72.2293C800.987 80.232 790.321 84.2648 778.81 84.2648H635.657V184.737H747.986C759.322 184.737 769.762 188.84 777.377 196.562C784.985 204.276 789 214.812 789 226.296C789 237.78 784.985 248.315 777.377 256.03C769.762 263.751 759.322 267.854 747.986 267.854H630.937V383.494C630.937 409.542 611.441 430.217 584.755 430.217C558.378 430.217 538 409.853 538 383.494ZM845 571.806C839.14 565.943 831.589 563.306 822.039 563.306H809V624.306H822.039C831.563 624.306 838.487 621.696 844.5 615.806C850.509 609.784 853 602.519 853 593.529C853 584.381 850.985 577.674 845 571.806ZM787 634.315V553.159C787 546.711 791.793 542 797.832 542H821.64C837.185 542 850.22 546.797 860.331 556.596C870.564 566.383 875.699 578.773 875.699 593.529C875.699 608.31 870.414 620.833 860.059 630.745C849.708 640.654 836.691 645.613 821.108 645.613H797.832C794.807 645.613 792.042 644.562 790.025 642.458C788.007 640.354 787 637.47 787 634.315ZM462 555.156V636.705C462 643.077 466.907 648 473.258 648C479.684 648 484.379 643.002 484.379 636.705V608.751H512.563C515.293 608.751 517.807 607.759 519.641 605.892C521.473 604.027 522.439 601.481 522.439 598.704C522.439 595.928 521.473 593.381 519.641 591.517C517.807 589.65 515.293 588.658 512.563 588.658H485.515V564.37H519.986C522.757 564.37 525.326 563.395 527.2 561.461C529.068 559.532 530 556.906 530 554.046C530 551.269 529.032 548.712 527.167 546.842C525.303 544.971 522.754 544 519.986 544H473.258C466.982 544 462 548.71 462 555.156ZM555.278 632.822L555.27 632.814C545.146 622.654 540 610.075 540 595.276C540 580.478 545.146 567.751 555.561 557.446C565.966 547.151 578.772 542 593.775 542C608.743 542 621.571 546.99 631.73 557.186C641.854 567.346 647 579.925 647 594.724C647 609.522 641.854 622.249 631.439 632.554C621.034 642.849 608.228 648 593.225 648C578.242 648 565.568 643.001 555.286 632.831L555.278 632.822ZM615.698 617.764L615.71 617.751C621.703 611.612 624.705 604.144 624.705 595C624.705 585.856 621.703 578.388 615.71 572.249L615.698 572.236L615.686 572.224C609.873 566.142 602.476 563.131 593.5 563.131C584.544 563.131 577.263 566.129 571.29 572.249C565.297 578.388 562.295 585.856 562.295 595C562.295 604.144 565.297 611.612 571.29 617.751C577.263 623.871 584.544 626.869 593.5 626.869C602.476 626.869 609.873 623.858 615.686 617.776L615.698 617.764ZM676.27 632.814L676.278 632.822L676.286 632.831C686.568 643.001 699.242 648 714.225 648C729.228 648 742.034 642.849 752.439 632.554C762.854 622.249 768 609.522 768 594.724C768 579.925 762.854 567.346 752.73 557.186C742.571 546.99 729.743 542 714.775 542C699.772 542 686.966 547.151 676.561 557.446C666.146 567.751 661 580.478 661 595.276C661 610.075 666.146 622.654 676.27 632.814ZM736.71 617.751L736.698 617.764L736.686 617.776C730.873 623.858 723.476 626.869 714.5 626.869C705.544 626.869 698.263 623.871 692.29 617.751C686.297 611.612 683.295 604.144 683.295 595C683.295 585.856 686.297 578.388 692.29 572.249C698.263 566.129 705.544 563.131 714.5 563.131C723.476 563.131 730.873 566.142 736.686 572.224L736.698 572.236L736.71 572.249C742.703 578.388 745.705 585.856 745.705 595C745.705 604.144 742.703 611.612 736.71 617.751Z" fill="#40B54B"/>
</svg>
