<?xml version="1.0" encoding="iso-8859-1"?>
<!-- Generator: Adobe Illustrator 19.0.0, SVG Export Plug-In . SVG Version: 6.00 Build 0)  -->
<svg version="1.1" id="Capa_1" xmlns="http://www.w3.org/2000/svg" xmlns:xlink="http://www.w3.org/1999/xlink" x="0px" y="0px"
	 viewBox="0 0 512.001 512.001" style="enable-background:new 0 0 512.001 512.001;" xml:space="preserve">
<g>
	<g>
		<path d="M447.938,122.574c-28.633-36.299-61.334-66.029-93.278-94.491C337.028,12.374,317.036-5.43,244.69,1.566
			c-15.026,1.457-21.17,12.281-25.656,20.184c-3.434,6.05-9.86,18.401-14.318,33.149c-4.487,14.842-1.732,30.512,7.559,42.995
			c9.353,12.566,23.706,19.773,39.379,19.773h15.29c11.335,0,21.527-6.291,26.63-16.495c26.427,35.891,45.949,66.719,56.453,89.151
			c10.27,21.928-7.419,43.255-32.163,43.255h-6.889c-47.006,0-91.802,19.741-123.455,54.281h-38.097
			C65.865,287.858,21,334.455,21,400.698c0,4.143,3.365,7.501,7.516,7.501s7.516-3.358,7.516-7.501
			c0-61.263,42.389-97.839,113.392-97.839h36.297c3.673,9.502,17.956,4.777,13.834-5.89c28.753-30.806,69.102-48.39,111.42-48.39
			c7.62,0,13.299,0.311,21.684-1.973c-0.131,2.693,1.198,5.367,3.686,6.831c1.199,0.706,2.513,1.041,3.811,1.041
			c2.573,0,5.079-1.32,6.481-3.692l14.563-24.649c8.021-12.488,9.141-27.865,2.445-42.165
			c-11.072-23.642-30.571-54.49-57.958-91.683c-8.101-11.004-36.795-7.826-42.322-34.831c-0.446-2.177-1.837-4.046-3.796-5.101
			c-8.132-4.374-18.371,8.477-21.879,18.48c-1.372,3.909,0.692,8.189,4.61,9.557c3.916,1.369,8.206-0.691,9.577-4.601
			c0.378-1.078,0.786-2.048,1.208-2.918c6.305,11.925,15.073,17.822,26.537,22.542c-2.636,4.495-7.406,7.248-12.676,7.248h-15.29
			c-22.725,0-39.084-21.811-32.548-43.434c4.036-13.352,9.881-24.581,13.006-30.087c5.003-8.815,7.875-12.05,14.029-12.647
			c70.731-6.833,83.79,10.031,102.325,26.149c37.75,33.105,66.425,62.285,87.648,89.19c36.664,46.761,42.145,75.51,39.106,106.728
			c-11.261,113.825-96.658,201.333-234.277,240.082c-43.192,12.05-92.575,18.353-106.935,18.353c-4.151,0-7.516,3.358-7.516,7.501
			s3.365,7.501,7.516,7.501c15.08,0,66.487-6.493,111-18.911c128.421-36.159,232.217-122.111,245.172-253.063
			C493.579,205.11,487.699,173.286,447.938,122.574z"/>
	</g>
</g>
<g>
	<g>
		<path d="M181.518,258.59l-50.514-17.726c-3.911-1.371-8.189,0.686-9.561,4.594c-1.37,3.909,0.686,8.189,4.595,9.561l50.514,17.726
			c0.822,0.288,1.66,0.425,2.483,0.425c3.096,0,5.994-1.932,7.077-5.019C187.483,264.242,185.427,259.962,181.518,258.59z"/>
	</g>
</g>
<g>
	<g>
		<path d="M242.413,222.75l-23.9-48.642c-1.827-3.717-6.321-5.249-10.039-3.424c-3.717,1.827-5.25,6.321-3.424,10.039l23.9,48.642
			c1.304,2.654,3.967,4.194,6.737,4.194c1.11,0,2.238-0.248,3.302-0.77C242.706,230.962,244.239,226.468,242.413,222.75z"/>
	</g>
</g>
<g>
	<g>
		<path d="M321.324,170.132c-3.858-1.52-8.21,0.376-9.727,4.231l-13.757,34.938c-1.518,3.854,0.376,8.208,4.23,9.726
			c0.902,0.355,1.832,0.523,2.746,0.523c2.992,0,5.819-1.802,6.981-4.754l13.757-34.938
			C327.072,176.004,325.178,171.65,321.324,170.132z"/>
	</g>
</g>
<g>
</g>
<g>
</g>
<g>
</g>
<g>
</g>
<g>
</g>
<g>
</g>
<g>
</g>
<g>
</g>
<g>
</g>
<g>
</g>
<g>
</g>
<g>
</g>
<g>
</g>
<g>
</g>
<g>
</g>
</svg>
