<?xml version="1.0" encoding="iso-8859-1"?>
<!-- Generator: Adobe Illustrator 19.0.0, SVG Export Plug-In . SVG Version: 6.00 Build 0)  -->
<svg version="1.1" id="Capa_1" xmlns="http://www.w3.org/2000/svg" xmlns:xlink="http://www.w3.org/1999/xlink" x="0px" y="0px"
	 viewBox="0 0 511.999 511.999" style="fill: #66da71; enable-background:new 0 0 511.999 511.999;" xml:space="preserve">
<g>
	<g>
		<path d="M492.276,56.005c-14.091-15.175-34.106-23.878-54.912-23.878H323.609C304.722,18.043,281.318,9.696,256,9.696
			s-48.722,8.347-67.609,22.431H74.636c-20.806,0-40.821,8.703-54.912,23.878C5.611,71.203-1.319,90.918,0.208,111.52l4.862,65.577
			c0.305,4.118,3.898,7.198,8.01,6.904c4.118-0.306,7.209-3.892,6.904-8.01l-4.862-65.577c-1.217-16.407,4.31-32.117,15.561-44.233
			c11.437-12.316,27.047-19.1,43.953-19.1h97.319c-18.189,20.111-29.282,46.754-29.282,75.942
			c0,62.489,50.839,113.328,113.328,113.328s113.328-50.839,113.328-113.328c0-29.187-11.093-55.831-29.282-75.942h97.319
			c16.906,0,32.516,6.783,43.953,19.1c11.251,12.116,16.777,27.825,15.561,44.233l-23.89,322.232
			c-2.274,30.674-28.416,54.701-59.514,54.701H305.852c-4.13,0-7.477,3.347-7.477,7.478c0,4.131,3.348,7.477,7.477,7.477h107.622
			c18.895,0,36.928-7.018,50.775-19.76c13.866-12.759,22.266-30.087,23.653-48.79l23.89-322.232
			C513.319,90.918,506.389,71.203,492.276,56.005z M354.373,123.024c0,54.243-44.13,98.373-98.373,98.373
			s-98.373-44.129-98.373-98.373c0-54.244,44.13-98.373,98.373-98.373S354.373,68.78,354.373,123.024z"/>
	</g>
</g>
<g>
	<g>
		<path d="M259.99,487.347H98.526c-31.099,0-57.24-24.027-59.513-54.688l-15.32-211.606c-0.298-4.118-3.878-7.218-7.998-6.917
			c-4.119,0.298-7.216,3.879-6.918,7.998l15.321,211.619c1.387,18.703,9.787,36.031,23.653,48.79
			c13.847,12.742,31.88,19.76,50.775,19.76H259.99c4.13,0,7.477-3.347,7.477-7.477S264.12,487.347,259.99,487.347z"/>
	</g>
</g>
<g>
	<g>
		<path d="M256,37.206c-4.13,0-7.477,3.347-7.477,7.478v16.539c0,4.13,3.348,7.477,7.477,7.477c4.13,0,7.477-3.347,7.477-7.478
			V44.684C263.477,40.554,260.129,37.206,256,37.206z"/>
	</g>
</g>
<g>
	<g>
		<path d="M256,177.348c-4.13,0-7.477,3.347-7.477,7.477v16.538c0,4.13,3.348,7.477,7.477,7.477c4.13,0,7.477-3.347,7.477-7.477
			v-16.538C263.478,180.695,260.13,177.348,256,177.348z"/>
	</g>
</g>
<g>
	<g>
		<path d="M231.575,65.764l-8.269-14.323c-2.065-3.577-6.638-4.8-10.214-2.737c-3.576,2.065-4.802,6.638-2.737,10.214l8.269,14.323
			c1.385,2.399,3.898,3.74,6.482,3.74c1.269,0,2.554-0.323,3.732-1.003C232.414,73.913,233.64,69.34,231.575,65.764z"/>
	</g>
</g>
<g>
	<g>
		<path d="M301.645,187.129l-8.269-14.322c-2.065-3.576-6.638-4.801-10.214-2.737c-3.577,2.065-4.802,6.638-2.737,10.214
			l8.269,14.322c1.385,2.399,3.898,3.74,6.482,3.74c1.269,0,2.554-0.323,3.732-1.003
			C302.485,195.278,303.71,190.705,301.645,187.129z"/>
	</g>
</g>
<g>
	<g>
		<path d="M206.217,85.647l-14.322-8.269c-3.577-2.064-8.15-0.84-10.214,2.737c-2.065,3.576-0.84,8.149,2.737,10.214l14.322,8.269
			c1.178,0.68,2.463,1.003,3.732,1.003c2.584,0,5.097-1.341,6.482-3.74C211.019,92.285,209.794,87.712,206.217,85.647z"/>
	</g>
</g>
<g>
	<g>
		<path d="M327.583,155.718l-14.323-8.269c-3.577-2.064-8.15-0.84-10.214,2.737c-2.065,3.576-0.839,8.149,2.737,10.214l14.323,8.269
			c1.178,0.68,2.463,1.003,3.732,1.003c2.584,0,5.098-1.341,6.482-3.74C332.385,162.356,331.159,157.783,327.583,155.718z"/>
	</g>
</g>
<g>
	<g>
		<path d="M194.199,115.546h-16.538c-4.13,0-7.477,3.347-7.477,7.478c0,4.131,3.348,7.477,7.477,7.477h16.538
			c4.13,0,7.477-3.347,7.477-7.477C201.676,118.894,198.328,115.546,194.199,115.546z"/>
	</g>
</g>
<g>
	<g>
		<path d="M334.339,115.546h-16.538c-4.13,0-7.477,3.348-7.477,7.478c0,4.13,3.348,7.477,7.477,7.477h16.538
			c4.13,0,7.477-3.347,7.477-7.477C341.816,118.894,338.468,115.546,334.339,115.546z"/>
	</g>
</g>
<g>
	<g>
		<path d="M208.954,150.186c-2.065-3.577-6.638-4.801-10.214-2.737l-14.322,8.269c-3.577,2.065-4.802,6.638-2.737,10.214
			c1.385,2.399,3.898,3.74,6.482,3.74c1.269,0,2.554-0.323,3.732-1.003l14.322-8.269
			C209.794,158.335,211.019,153.762,208.954,150.186z"/>
	</g>
</g>
<g>
	<g>
		<path d="M330.319,80.115c-2.065-3.577-6.638-4.8-10.214-2.737l-14.323,8.269c-3.576,2.065-4.802,6.638-2.737,10.214
			c1.385,2.399,3.898,3.74,6.482,3.74c1.269,0,2.554-0.323,3.732-1.003l14.323-8.269C331.158,88.264,332.384,83.691,330.319,80.115z
			"/>
	</g>
</g>
<g>
	<g>
		<path d="M228.838,170.07c-3.577-2.065-8.15-0.84-10.214,2.737l-8.269,14.322c-2.065,3.576-0.84,8.149,2.737,10.214
			c1.178,0.68,2.463,1.003,3.732,1.003c2.584,0,5.097-1.341,6.482-3.74l8.269-14.322C233.64,176.708,232.415,172.135,228.838,170.07
			z"/>
	</g>
</g>
<g>
	<g>
		<path d="M298.908,48.704c-3.577-2.064-8.15-0.84-10.214,2.737l-8.269,14.323c-2.065,3.576-0.839,8.149,2.737,10.214
			c1.178,0.679,2.463,1.003,3.732,1.003c2.584,0,5.098-1.341,6.482-3.74l8.269-14.323C303.71,55.342,302.484,50.769,298.908,48.704z
			"/>
	</g>
</g>
<g>
	<g>
		<path d="M273.742,111.774c-2.313-4.374-6.082-7.654-10.675-9.377V87.989c0-4.13-3.348-7.477-7.477-7.477
			c-4.13,0-7.477,3.347-7.477,7.477v14.728c-0.505,0.217-1.008,0.442-1.499,0.702c-9.783,5.175-13.531,17.345-8.356,27.127
			c2.507,4.74,6.71,8.218,11.834,9.797c1.952,0.602,3.948,0.9,5.933,0.9c3.228,0,6.427-0.788,9.361-2.341
			c4.739-2.507,8.218-6.709,9.796-11.833C276.76,121.945,276.249,116.513,273.742,111.774z M258.393,125.684
			c-1.209,0.638-2.593,0.767-3.899,0.367c-1.307-0.403-2.378-1.29-3.017-2.498c-0.639-1.207-0.77-2.593-0.368-3.898
			c0.403-1.307,1.29-2.378,2.498-3.017c0.748-0.395,1.564-0.596,2.387-0.596c0.506,0,1.015,0.076,1.512,0.229
			c1.306,0.402,2.377,1.289,3.016,2.497C261.843,121.26,260.887,124.363,258.393,125.684z"/>
	</g>
</g>
<g>
</g>
<g>
</g>
<g>
</g>
<g>
</g>
<g>
</g>
<g>
</g>
<g>
</g>
<g>
</g>
<g>
</g>
<g>
</g>
<g>
</g>
<g>
</g>
<g>
</g>
<g>
</g>
<g>
</g>
</svg>
