<?xml version="1.0" encoding="iso-8859-1"?>
<!-- Generator: Adobe Illustrator 19.0.0, SVG Export Plug-In . SVG Version: 6.00 Build 0)  -->
<svg version="1.1" id="Capa_1" xmlns="http://www.w3.org/2000/svg" xmlns:xlink="http://www.w3.org/1999/xlink" x="0px" y="0px"
	 viewBox="0 0 480.003 480.003" style="fill: #66da71; enable-background:new 0 0 480.003 480.003;" xml:space="preserve">
<g>
	<g>
		<path d="M472.001,256.003h-18.216l25.16-44c1.656-2.899,1.337-6.522-0.8-9.088l-40-48c-1.431-1.742-3.532-2.8-5.784-2.912
			c-2.239-0.071-4.411,0.773-6.016,2.336l-22.032,22.032c-11.659,1.813-20.271,11.833-20.312,23.632v16c0,4.418,3.582,8,8,8h32
			c4.418,0,8-3.582,8-8v-16c-0.021-7.516-3.578-14.584-9.6-19.08l9.064-9.064l30.832,37l-26.936,47.144h-59.36v-160
			c0-4.418-3.582-8-8-8h-48.88c-10.001-16.162-28.166-25.415-47.12-24c-18.954-1.415-37.119,7.838-47.12,24h-48.88
			c-4.418,0-8,3.582-8,8v160h-40v-16h8c4.418,0,8-3.582,8-8v-32c0-4.418-3.582-8-8-8h-8v-24c0-4.418-3.582-8-8-8h-80
			c-4.418,0-8,3.582-8,8v32c0,4.418,3.582,8,8,8h8v16h-8c-4.418,0-8,3.582-8,8v24h-24c-4.418,0-8,3.582-8,8v32c0,4.418,3.582,8,8,8
			h24v168c0,4.418,3.582,8,8,8h400c4.418,0,8-3.582,8-8v-168h24c4.418,0,8-3.582,8-8v-32
			C480.001,259.585,476.42,256.003,472.001,256.003z M416.001,208.003h-16v-8c0-4.418,3.582-8,8-8s8,3.582,8,8V208.003z
			 M325.353,104.003h34.648v152h-16v-45.6c0.043-21.376-15.881-39.418-37.096-42.032c12.48-9.821,20.159-24.515,21.096-40.368
			C328.083,119.926,327.194,111.868,325.353,104.003z M250.353,221.659l16,16c3.124,3.123,8.188,3.123,11.312,0l16-16
			c2.266-2.263,2.965-5.659,1.776-8.632l-11.624-29.024h17.784c14.58,0,26.4,11.82,26.4,26.4v45.6h-112v-45.6
			c0-14.58,11.82-26.4,26.4-26.4h17.784l-11.608,29.024C247.388,216,248.087,219.396,250.353,221.659z M265.394,214.075
			l6.608-16.536l6.608,16.536l-6.608,6.616L265.394,214.075z M311.626,132.315c-3.208,19.584-27.344,35.688-39.624,35.688
			c-17.843-3.039-32.686-15.412-38.888-32.416c13.696-1.128,38.4-5.28,49.92-20.432L311.626,132.315z M272.001,80.003
			c22.704,0,35.2,10.736,38.776,33.136l-26.656-16c-3.789-2.273-8.703-1.044-10.976,2.745c-0.3,0.5-0.544,1.03-0.728,1.583
			c-4.048,12.144-25.904,16.736-40,18.072C234.585,92.731,247.202,80.003,272.001,80.003z M184.001,104.003h34.648
			c-1.84,7.865-2.729,15.923-2.648,24c0.93,15.862,8.61,30.566,21.096,40.392c-21.206,2.613-37.127,20.641-37.096,42.008v45.6h-16
			V104.003z M128.001,208.003v16h-64v-16H128.001z M48.002,176.003h64v16h-64V176.003z M48.002,240.003h64v16h-64V240.003z
			 M432.001,464.003h-384v-160h384V464.003z M464.001,288.003h-448v-16h448V288.003z"/>
	</g>
</g>
<g>
	<g>
		<path d="M104.002,32.003h-5.192L61.002,1.755c-2.923-2.34-7.077-2.34-10,0L13.194,32.003H8.002c-4.418,0-8,3.582-8,8v64
			c0,4.418,3.582,8,8,8h96c4.418,0,8-3.582,8-8v-64C112.002,35.585,108.42,32.003,104.002,32.003z M56.002,18.251l17.192,13.752
			h-34.4L56.002,18.251z M96.002,96.003h-80v-48h80V96.003z"/>
	</g>
</g>
<g>
</g>
<g>
</g>
<g>
</g>
<g>
</g>
<g>
</g>
<g>
</g>
<g>
</g>
<g>
</g>
<g>
</g>
<g>
</g>
<g>
</g>
<g>
</g>
<g>
</g>
<g>
</g>
<g>
</g>
</svg>
